<svg width="295" height="280" viewBox="0 0 295 280" fill="none" xmlns="http://www.w3.org/2000/svg">
<circle cx="140" cy="140" r="140" fill="#DCA1E8"/>
<path d="M140 0C217.32 0 280 62.6801 280 140C280 184.175 259.539 223.569 227.579 249.228C230.701 246.336 233.438 243.462 235.796 240.711L177.265 187.058C197.589 175.108 211.231 153.014 211.231 127.732C211.231 89.7509 180.441 58.9609 142.459 58.9609C104.478 58.9612 73.6877 89.7511 73.6875 127.732C73.6875 153.024 87.3411 175.126 107.679 187.072L49.1289 245.623C65.9938 260.079 92.3119 279.258 141.992 279.984C141.329 279.994 140.665 280 140 280C62.6802 280 0 217.32 0 140C0 62.6802 62.6802 8.32373e-05 140 0Z" fill="#FBE7FF"/>
</svg>
